<svg width="34" height="34" viewBox="0 0 34 34" fill="none" xmlns="http://www.w3.org/2000/svg">
<path d="M23.7991 0H10.2027C4.58002 0 0.00540161 4.57461 0.00540161 10.1973V18.1285C0.00540161 23.5614 4.2758 28.0153 9.63617 28.3105V33.0375C9.63617 33.5683 10.069 34 10.6009 34C10.8553 34 11.0961 33.8992 11.2779 33.7173L12.3407 32.6545C15.1314 29.8633 18.8426 28.3258 22.7901 28.3258H23.7991C29.4217 28.3258 33.9963 23.7512 33.9963 18.1285V10.1973C33.9963 4.57461 29.4217 0 23.7991 0ZM9.63617 16.429C8.38643 16.429 7.3701 15.4126 7.3701 14.1629C7.3701 12.9132 8.38643 11.8968 9.63617 11.8968C10.8859 11.8968 11.9022 12.9132 11.9022 14.1629C11.9022 15.4126 10.8853 16.429 9.63617 16.429ZM17.0009 16.429C15.7511 16.429 14.7348 15.4126 14.7348 14.1629C14.7348 12.9132 15.7511 11.8968 17.0009 11.8968C18.2506 11.8968 19.2669 12.9132 19.2669 14.1629C19.2669 15.4126 18.25 16.429 17.0009 16.429ZM24.3656 16.429C23.1158 16.429 22.0995 15.4126 22.0995 14.1629C22.0995 12.9132 23.1158 11.8968 24.3656 11.8968C25.6153 11.8968 26.6316 12.9132 26.6316 14.1629C26.6316 15.4126 25.6147 16.429 24.3656 16.429Z" fill="#0D7DFC"/>
</svg>
