<svg width="30" height="30" viewBox="0 0 30 30" fill="none" xmlns="http://www.w3.org/2000/svg">
<g clip-path="url(#clip0_283_2416)">
<path d="M28.8674 12.3922L16.6307 12.3916C16.0903 12.3916 15.6523 12.8295 15.6523 13.3699V17.279C15.6523 17.8192 16.0903 18.2572 16.6306 18.2572H23.5216C22.767 20.2155 21.3587 21.8555 19.5618 22.8975L22.5001 27.984C27.2135 25.258 30.0001 20.4751 30.0001 15.1209C30.0001 14.3585 29.9439 13.8136 29.8316 13.1999C29.7461 12.7337 29.3414 12.3922 28.8674 12.3922Z" fill="#167EE6"/>
<path d="M15.0003 24.1306C11.628 24.1306 8.68404 22.2881 7.10289 19.5615L2.0166 22.4932C4.60498 26.9793 9.45384 30.0002 15.0003 30.0002C17.7212 30.0002 20.2886 29.2676 22.5003 27.9909V27.9839L19.562 22.8974C18.218 23.6769 16.6627 24.1306 15.0003 24.1306Z" fill="#12B347"/>
<path d="M22.5 27.991V27.984L19.5617 22.8975C18.2177 23.6769 16.6625 24.1307 15 24.1307V30.0003C17.7209 30.0003 20.2884 29.2677 22.5 27.991Z" fill="#0F993E"/>
<path d="M5.86957 14.9999C5.86957 13.3376 6.32321 11.7825 7.10256 10.4385L2.01627 7.50684C0.732539 9.71154 0 12.272 0 14.9999C0 17.7278 0.732539 20.2882 2.01627 22.4929L7.10256 19.5612C6.32321 18.2172 5.86957 16.6621 5.86957 14.9999Z" fill="#FFD500"/>
<path d="M15.0003 5.86957C17.1994 5.86957 19.2194 6.65098 20.7971 7.95076C21.1864 8.27139 21.7521 8.24824 22.1086 7.8917L24.8784 5.12197C25.2829 4.71744 25.2541 4.05527 24.8219 3.68039C22.1785 1.38709 18.739 0 15.0003 0C9.45385 0 4.60498 3.02092 2.0166 7.50697L7.10289 10.4387C8.68404 7.71211 11.628 5.86957 15.0003 5.86957Z" fill="#FF4B26"/>
<path d="M20.7968 7.95076C21.186 8.27139 21.7518 8.24824 22.1083 7.8917L24.878 5.12197C25.2825 4.71744 25.2537 4.05527 24.8216 3.68039C22.1782 1.38703 18.7387 0 15 0V5.86957C17.199 5.86957 19.219 6.65098 20.7968 7.95076Z" fill="#D93F21"/>
</g>
<defs>
<clipPath id="clip0_283_2416">
<rect width="30" height="30" fill="white"/>
</clipPath>
</defs>
</svg>
